<svg xmlns="http://www.w3.org/2000/svg" viewBox="0 0 576 512">
  <!-- WIDE BODY / JUMBO JET Silhouette -->
  <!-- Thicker fuselage, wider wingspan -->
  <path fill="#0288d1" d="M432,224H416a16,16,0,0,1-16-16V128H368V80c0-26.51-21.49-48-48-48s-48,21.49-48,48v48H240V208a16,16,0,0,1-16,16H208L32,256l176,32h16a16,16,0,0,1,16,16v80h32v48c0,26.51,21.49,48,48,48s48-21.49,48-48V384h32V304a16,16,0,0,1,16-16h16l176-32ZM320,384H320V304a16,16,0,0,1,16-16h16l112,20.36V309L352,288H320V256h-64v32H224l-96,21v-.64L240,288h16a16,16,0,0,1,16,16v80h0Z" />
  <path fill="#0288d1" d="M527.9,224H480v-48c0-17.7-14.3-32-32-32H352V80c0-44.2-35.8-80-80-80S192,35.8,192,80v64H96c-17.7,0-32,14.3-32,32v48H16c-8.8,0-16,7.2-16,16s7.2,16,16,16H64v48c0,17.7,14.3,32,32,32H192v64c0,44.2,35.8,80,80,80s80-35.8,80-80V352h96c17.7,0,32-14.3,32-32V272h47.9c8.8,0,16-7.2,16-16S536.7,224,527.9,224ZM320,400c0,26.5-21.5,48-48,48s-48-21.5-48-48V352H320Zm-96-256V80c0-26.5,21.5-48,48-48s48,21.5,48,48v64Z"/>
  <!-- Simplified Thick Body Path -->
   <path d="M288 0C252.7 0 224 28.7 224 64V128H96C78.3 128 64 142.3 64 160V192H16C7.2 192 0 199.2 0 208S7.2 224 16 224H64V256C64 273.7 78.3 288 96 288H224V352H192C174.3 352 160 366.3 160 384V416H112C103.2 416 96 423.2 96 432S103.2 448 112 448H160V480C160 497.7 174.3 512 192 512H384C401.7 512 416 497.7 416 480V448H464C472.8 448 480 440.8 480 432S472.8 416 464 416H416V384C416 366.3 401.7 352 384 352H352V288H480C497.7 288 512 273.7 512 256V224H560C568.8 224 576 216.8 576 208S568.8 192 560 192H512V160C512 142.3 497.7 128 480 128H352V64C352 28.7 323.3 0 288 0ZM256 64C256 46.3 270.3 32 288 32S320 46.3 320 64V128H256V64ZM96 160H224V256H96V160ZM352 256H480V160H352V256ZM384 384V480H192V384H384Z" fill="currentColor"/>
</svg>
